<svg xmlns="http://www.w3.org/2000/svg" viewBox="0 0 47.74 59.67"><defs><style>.cls-1{fill:#001e61;}.cls-2{fill:#021d49;}.cls-3{fill:#b2292e;}.cls-4{fill:#d7282f;}</style></defs><g id="Layer_2" data-name="Layer 2"><g id="Layer_1-2" data-name="Layer 1"><polygon class="cls-1" points="23.87 13.49 0 0 0 26.91 10.13 32.6 10.13 15.75 23.86 23.37 37.61 15.75 37.61 32.6 47.74 26.91 47.74 0 23.87 13.49"/><polygon class="cls-2" points="23.87 13.49 23.87 23.36 37.61 15.75 37.61 32.6 47.74 26.91 47.74 0 23.87 13.49"/><polygon class="cls-3" points="47.74 34.43 23.87 47.72 0 34.43 0 46.05 23.86 59.67 23.86 59.67 23.87 59.67 23.87 59.67 23.87 59.67 47.74 46.05 47.74 34.43"/><polygon class="cls-4" points="23.87 47.72 23.87 47.72 0 34.43 0 46.05 23.86 59.67 23.86 59.67 23.87 59.67 23.87 47.72"/></g></g></svg>