<svg xmlns="http://www.w3.org/2000/svg" xmlns:xlink="http://www.w3.org/1999/xlink" viewBox="0 0 364.28 330.18">
  <defs>
    <style>
      .cls-1 {
        fill: url(#linear-gradient);
      }

      .cls-2 {
        fill: url(#linear-gradient-2);
      }

      .cls-3 {
        fill: #2e3094;
      }

      .cls-4 {
        fill: #0c4ca3;
      }

      .cls-5 {
        fill: #ed1b24;
      }
    </style>
    <linearGradient id="linear-gradient" x1="1.04" y1="52.24" x2="363.65" y2="52.24" gradientUnits="userSpaceOnUse">
      <stop offset="0" stop-color="#fff8f5"/>
      <stop offset="0.83" stop-color="#f2674a"/>
      <stop offset="1" stop-color="#ee2326"/>
    </linearGradient>
    <linearGradient id="linear-gradient-2" y1="277.94" x2="362.61" y2="277.94" gradientUnits="userSpaceOnUse">
      <stop offset="0" stop-color="#0d4ea2"/>
      <stop offset="0.17" stop-color="#4d69b2"/>
      <stop offset="1" stop-color="#f3f4f9"/>
    </linearGradient>
  </defs>
  <g id="Layer_2" data-name="Layer 2">
    <g id="Layer_1-2" data-name="Layer 1">
      <g>
        <path class="cls-1" d="M1,101.6C9.65,65.08,81.33-12.4,213.39,1.69,334.62,14.62,363.65,104.47,363.65,104.47H285.78S269.87,42.24,173.39,27.93C81.09,14.23,11.14,72.69,1,104.47"/>
        <path class="cls-2" d="M0,225.69H104.48s13.43,87,127.17,78.39c98.35-10.43,131-66.78,131-66.78s-32.09,70.44-130.18,88.44S30.52,306.43,0,225.69Z"/>
        <g>
          <g>
            <g>
              <path class="cls-3" d="M115.35,225.37v-1.55h1.27v1.55Zm.09,10.82V226.06h1.1v10.13Z"/>
              <path class="cls-3" d="M123.64,236.19V235l4.25-6.49a14.48,14.48,0,0,1,.86-1.2h-4.64v-1.2h6v1.2l-4.65,7-.51.72h5.3v1.19Z"/>
              <path class="cls-3" d="M137.17,236.19V226.06h1.65l2,7.17.39,1.5c.1-.37.24-.91.44-1.62l2-7.05h1.48v10.13h-1v-8.47l-2.43,8.47h-1l-2.41-8.62v8.62Z"/>
              <path class="cls-3" d="M152.83,225.37v-1.55h1.26v1.55Zm.08,10.82V226.06H154v10.13Z"/>
              <path class="cls-3" d="M161.75,236.19V226.06h3.69a4.05,4.05,0,0,1,1.7.28,2.13,2.13,0,0,1,.9.95,3.14,3.14,0,0,1,.35,1.53,2.81,2.81,0,0,1-.59,1.85,2.77,2.77,0,0,1-1.74.91,2.64,2.64,0,0,1,.7.56,7.29,7.29,0,0,1,.87,1.29l1.45,2.76H167.7l-1.11-2.11a15.14,15.14,0,0,0-1-1.66,1.86,1.86,0,0,0-.64-.58,2,2,0,0,0-.86-.15h-1.27v4.5Zm1.1-5.66h2.36a3,3,0,0,0,1.18-.18,1.52,1.52,0,0,0,.64-.59,1.89,1.89,0,0,0,.23-.93,1.6,1.6,0,0,0-.45-1.21,1.84,1.84,0,0,0-1.33-.44h-2.63Z"/>
            </g>
            <g>
              <path class="cls-3" d="M182.73,236.19V226.06h3.12a3.32,3.32,0,0,1,1.51.29,2.34,2.34,0,0,1,.9.92,2.66,2.66,0,0,1,.35,1.37,2.61,2.61,0,0,1-.3,1.26,2.39,2.39,0,0,1-.86.9,2.24,2.24,0,0,1,1.14.89,2.77,2.77,0,0,1,.42,1.56,3.37,3.37,0,0,1-.38,1.62,2.32,2.32,0,0,1-1,1,3.94,3.94,0,0,1-1.73.31Zm1.1-5.87h1.8a3.45,3.45,0,0,0,1-.1,1.31,1.31,0,0,0,.66-.49,1.64,1.64,0,0,0,.23-.93,1.76,1.76,0,0,0-.21-.9,1.08,1.08,0,0,0-.56-.5,3.68,3.68,0,0,0-1.26-.14h-1.67Zm0,4.68h2.07a3,3,0,0,0,1-.13,1.37,1.37,0,0,0,.72-.59,2,2,0,0,0,.25-1,1.81,1.81,0,0,0-.24-1,1.41,1.41,0,0,0-.63-.58,3.05,3.05,0,0,0-1.25-.19h-1.93Z"/>
              <path class="cls-3" d="M195.63,236.19l3.2-10.13H200l3.4,10.13h-1.26l-1-3.07h-3.5l-.9,3.07ZM198,232h2.83l-.86-2.8c-.27-.87-.46-1.57-.59-2.1a15,15,0,0,1-.45,1.93Z"/>
              <path class="cls-3" d="M210.28,236.19V226.06h1.12l4.37,8v-8h1v10.13h-1.13l-4.36-8v8Z"/>
              <path class="cls-3" d="M224.64,236.19V226.06h1.1V235h4.09v1.19Z"/>
              <path class="cls-3" d="M237.32,225.37v-1.55h1.26v1.55Zm.08,10.82V226.06h1.1v10.13Z"/>
              <path class="cls-3" d="M248.78,236.19V231.9l-3.19-5.84h1.34l1.63,3.06c.32.6.61,1.17.85,1.71.24-.53.55-1.12.91-1.79l1.61-3h1.27l-3.32,5.84v4.29Z"/>
              <path class="cls-3" d="M259.91,231.26a6.16,6.16,0,0,1,1.14-4,3.54,3.54,0,0,1,2.84-1.39,3.48,3.48,0,0,1,2,.62,4.24,4.24,0,0,1,1.43,1.81,6.76,6.76,0,0,1,.53,2.82,6.11,6.11,0,0,1-1,3.67,3.55,3.55,0,0,1-5.91,0A5.92,5.92,0,0,1,259.91,231.26Zm1.13,0a4.56,4.56,0,0,0,.82,2.91,2.47,2.47,0,0,0,4,0,4.87,4.87,0,0,0,.82-3.07,6.18,6.18,0,0,0-.42-2.34,2.92,2.92,0,0,0-1-1.26,2.42,2.42,0,0,0-1.43-.47,2.47,2.47,0,0,0-2.05,1A5.25,5.25,0,0,0,261,231.27Zm1.13-6.42v-1.42h1.07v1.42Zm2.12,0v-1.42h1.06v1.42Z"/>
            </g>
            <g>
              <path class="cls-3" d="M281.84,232.93l1-.11a3,3,0,0,0,.37,1.3,2.19,2.19,0,0,0,.84.75,2.65,2.65,0,0,0,1.23.28,2.29,2.29,0,0,0,1.53-.47,1.6,1.6,0,0,0,.54-1.25,1.43,1.43,0,0,0-.79-1.33,11.83,11.83,0,0,0-1.72-.6,6.09,6.09,0,0,1-1.67-.71,2.48,2.48,0,0,1-.78-.89,2.95,2.95,0,0,1,.52-3.24,2.93,2.93,0,0,1,2.14-.78,3.34,3.34,0,0,1,1.62.37,2.49,2.49,0,0,1,1.08,1.05,3.4,3.4,0,0,1,.41,1.61l-1.05.1a2.27,2.27,0,0,0-.59-1.47,2,2,0,0,0-1.43-.48,2.11,2.11,0,0,0-1.42.42,1.36,1.36,0,0,0-.5,1.08,1.27,1.27,0,0,0,.36,1,4.4,4.4,0,0,0,1.62.68,11.65,11.65,0,0,1,1.73.59,2.78,2.78,0,0,1,1.14,1,2.83,2.83,0,0,1,.39,1.51,3,3,0,0,1-.41,1.58,2.75,2.75,0,0,1-1.1,1.09,3.57,3.57,0,0,1-1.69.37,3.29,3.29,0,0,1-2.46-.92A3.53,3.53,0,0,1,281.84,232.93Z"/>
              <path class="cls-3" d="M296,225.37v-1.55h1.27v1.55Zm.09,10.82V226.06h1.1v10.13Z"/>
              <path class="cls-3" d="M304.72,232.93l1-.11a3,3,0,0,0,.37,1.3,2.19,2.19,0,0,0,.84.75,2.65,2.65,0,0,0,1.23.28,2.29,2.29,0,0,0,1.53-.47,1.6,1.6,0,0,0,.54-1.25,1.43,1.43,0,0,0-.79-1.33,11.83,11.83,0,0,0-1.72-.6,6.09,6.09,0,0,1-1.67-.71,2.48,2.48,0,0,1-.78-.89,2.95,2.95,0,0,1,.52-3.24,2.93,2.93,0,0,1,2.14-.78,3.41,3.41,0,0,1,1.63.37,2.52,2.52,0,0,1,1.07,1.05,3.28,3.28,0,0,1,.41,1.61L310,229a2.27,2.27,0,0,0-.59-1.47,2,2,0,0,0-1.43-.48,2.11,2.11,0,0,0-1.42.42,1.35,1.35,0,0,0-.49,1.08,1.3,1.3,0,0,0,.35,1,4.4,4.4,0,0,0,1.62.68,11.65,11.65,0,0,1,1.73.59,2.78,2.78,0,0,1,1.14,1,2.83,2.83,0,0,1,.39,1.51,3.12,3.12,0,0,1-.4,1.58,2.83,2.83,0,0,1-1.11,1.09,3.54,3.54,0,0,1-1.69.37,3.29,3.29,0,0,1-2.46-.92A3.53,3.53,0,0,1,304.72,232.93Z"/>
              <path class="cls-3" d="M320.92,236.19v-8.93h-2.74v-1.2h6.59v1.2H322v8.93Z"/>
              <path class="cls-3" d="M331.86,236.19V226.06h6v1.2H333v3.09h4.59v1.2H333V235h5.1v1.19Z"/>
              <path class="cls-3" d="M345.5,236.19V226.06h1.65l2,7.17.4,1.5c.09-.37.24-.91.44-1.62l2-7.05h1.48v10.13h-1.06v-8.47L350,236.19h-1l-2.4-8.62v8.62Z"/>
              <path class="cls-3" d="M361.28,225.37v-1.55h1.27v1.55Zm.08,10.82V226.06h1.1v10.13Z"/>
            </g>
          </g>
          <g>
            <path class="cls-4" d="M36.71,219.76V199.13l34.5-65.92H39V109.8h65.61v20.64L69.51,196.35h35.12v23.41Z"/>
            <path class="cls-5" d="M115.41,219.76v-110h43.27q14.94,0,22.49,7.32t7.54,20.09q0,9.4-4,15.71a19.53,19.53,0,0,1-13.25,8.94v.3q10.17.93,15.56,8.78a27.65,27.65,0,0,1,4.77,16.33q0,32.49-33.11,32.49Zm28.64-89.32v22.48H151a7.88,7.88,0,0,0,6.62-3.23,12.53,12.53,0,0,0,2.47-7.85,13.12,13.12,0,0,0-2.47-8.09,7.82,7.82,0,0,0-6.62-3.31Zm0,41.89v26.8h8a9,9,0,0,0,7.16-3.62q3-3.62,3-9.94a15.23,15.23,0,0,0-3.08-9.85,9,9,0,0,0-7.08-3.39Z"/>
            <path class="cls-5" d="M192.26,219.76l26.79-110h36l26.8,110h-30.5l-2.92-19.25H225.68l-2.93,19.25ZM245.08,179l-7.86-46.66h-.3L229.06,179Z"/>
            <path class="cls-5" d="M286.66,219.76v-110h32.23l18.6,67.77V109.8h26.79v110H332.67l-19.21-67.91v67.91Z"/>
            <g>
              <rect class="cls-4" y="136.86" width="28.09" height="82.9"/>
              <rect class="cls-4" y="109.8" width="28.09" height="22.49"/>
            </g>
          </g>
        </g>
      </g>
    </g>
  </g>
</svg>
