<?xml version="1.0" encoding="utf-8"?>
<!-- Generator: Adobe Illustrator 24.2.1, SVG Export Plug-In . SVG Version: 6.00 Build 0)  -->
<svg version="1.1" id="Layer_1" xmlns="http://www.w3.org/2000/svg" xmlns:xlink="http://www.w3.org/1999/xlink" x="0px" y="0px"
	 viewBox="0 0 570.6 392.8" style="enable-background:new 0 0 570.6 392.8;" xml:space="preserve">
<style type="text/css">
	.st0{fill:#FF1621;}
	.st1{fill:#0038EF;}
</style>
<g id="Layer_2_1_">
	<g id="Layer_1-2">
		<polygon class="st0" points="269.5,0 386.9,0 570.4,183.5 0,183.5 0,100.7 366.2,100.7 		"/>
		<polygon class="st1" points="300.8,392.8 183.5,392.8 0,209.3 570.4,209.3 570.4,292.2 204.2,292.2 		"/>
		<path class="st1" d="M53.3,71.6l0.1-44.9L45,71.6H29.5L21,26.7l0.2,44.9H5.1l1.4-67h24.3l6.9,42.9l7.2-42.8h23.5l1.6,67L53.3,71.6
			z"/>
		<path class="st1" d="M79.5,71.6v-67h38.6v15.2H97v9.5h19.6v15.5H97V56h21.9v15.6H79.5z"/>
		<path class="st1" d="M152.6,19.5v52.1H135V19.5h-13.1V4.6h44v14.9H152.6z"/>
		<path class="st1" d="M199.9,71.6l-8.9-24.3h-2.3v24.3h-17.4v-67h22.6c7,0,12.6,1.2,16.6,4.2c4.3,3.3,6.7,8.3,6.7,16.4
			c0,10.2-4.1,16-9.9,19.5l11.8,26.9H199.9z M192,18.9h-3.3V34h3.4c4.7,0,7.6-2.3,7.6-7.7C199.7,21.3,197.4,18.9,192,18.9z"/>
		<path class="st1" d="M248.7,72.6c-16.3,0-26.7-12-26.7-34.6c0-22.3,10.4-34.5,26.7-34.5s26.9,12,26.9,34.5S265.1,72.6,248.7,72.6z
			 M248.7,18.9c-6,0-8.4,7.2-8.4,19.1s2.5,19,8.4,19c5.8,0,8.4-7.1,8.4-19S254.6,18.9,248.7,18.9z"/>
		<path class="st0" d="M335.6,392.8v-11.4L359,341h-22.4v-15.2h44.2v11.7l-22.5,39.6h23.8v15.6H335.6z"/>
		<path class="st0" d="M447.2,392.8l0.1-44.9l-8.4,44.9h-15.5l-8.4-44.9l0.2,44.9H399l1.4-67h24.3l6.9,42.8l7.2-42.8h23.5l1.6,67
			L447.2,392.8z"/>
		<path class="st0" d="M551.3,392.8l-8.9-24.3h-2.3v24.3h-17.4v-67h22.6c7,0,12.6,1.2,16.7,4.2c4.3,3.3,6.7,8.3,6.7,16.3
			c0,10.2-4.1,16-9.9,19.5l11.8,26.9L551.3,392.8z M543.4,340.1h-3.3v15.2h3.4c4.7,0,7.6-2.3,7.6-7.7
			C551.1,342.5,548.8,340.1,543.4,340.1z"/>
		<g>
			<polygon class="st0" points="317.3,336.1 317.3,320.4 299.8,325.9 299.8,341.6 			"/>
			<polygon class="st0" points="299.8,349.7 299.8,392.8 317.3,392.8 317.3,343.9 			"/>
		</g>
		<g>
			<polygon class="st0" points="501.6,336.1 501.6,320.4 484.1,325.9 484.1,341.6 			"/>
			<polygon class="st0" points="484.1,349.7 484.1,392.8 501.6,392.8 501.6,343.9 			"/>
		</g>
	</g>
</g>
</svg>
