<?xml version="1.0" encoding="utf-8"?>
<!-- Generator: Adobe Illustrator 24.2.1, SVG Export Plug-In . SVG Version: 6.00 Build 0)  -->
<svg version="1.1" id="Layer_1" xmlns="http://www.w3.org/2000/svg" xmlns:xlink="http://www.w3.org/1999/xlink" x="0px" y="0px"
	 viewBox="0 0 570.6 392.8" style="enable-background:new 0 0 570.6 392.8;" xml:space="preserve">
<style type="text/css">
	.st0{fill:#51A945;}
	.st1{fill:#1F419A;}
</style>
<g id="Layer_2_1_">
	<g id="Layer_1-2">
		<polygon class="st0" points="269.5,0 386.9,0 570.4,183.5 0,183.5 0,100.7 366.2,100.7 		"/>
		<polygon class="st1" points="300.8,392.8 183.5,392.8 0,209.3 570.4,209.3 570.4,292.2 204.2,292.2 		"/>
		<path class="st0" d="M335.6,392.8v-11.4L359,341h-22.4v-15.2h44.2v11.7l-22.5,39.6h23.8v15.6L335.6,392.8L335.6,392.8z"/>
		<path class="st0" d="M447.2,392.8l0.1-44.9l-8.4,44.9h-15.5l-8.4-44.9l0.2,44.9H399l1.4-67h24.3l6.9,42.8l7.2-42.8h23.5l1.6,67
			H447.2z"/>
		<path class="st0" d="M551.3,392.8l-8.9-24.3h-2.3v24.3h-17.4v-67h22.6c7,0,12.6,1.2,16.7,4.2c4.3,3.3,6.7,8.3,6.7,16.3
			c0,10.2-4.1,16-9.9,19.5l11.8,26.9L551.3,392.8z M543.4,340.1h-3.3v15.2h3.4c4.7,0,7.6-2.3,7.6-7.7
			C551.1,342.5,548.8,340.1,543.4,340.1z"/>
		<g>
			<g>
				<polygon class="st0" points="317.3,336.1 317.3,320.4 299.8,325.9 299.8,341.6 				"/>
				<polygon class="st0" points="299.8,349.7 299.8,392.8 317.3,392.8 317.3,343.9 				"/>
			</g>
		</g>
		<g>
			<g>
				<polygon class="st0" points="501.6,336.1 501.6,320.4 484.1,325.9 484.1,341.6 				"/>
				<polygon class="st0" points="484.1,349.7 484.1,392.8 501.6,392.8 501.6,343.9 				"/>
			</g>
		</g>
	</g>
	<g>
		<g>
			<path class="st1" d="M30.6,14.4v50.6H13.1V14.4H0V0h43.9v14.4H30.6z"/>
			<path class="st1" d="M85.5,65.1l-8.9-23.6h-2.3v23.6H57V0h22.5c7,0,12.6,1.1,16.6,4.1c4.3,3.2,6.7,8.1,6.7,15.9
				c0,9.9-4.1,15.6-9.8,19l11.8,26.1H85.5z M77.6,13.8h-3.3v14.8h3.4c4.7,0,7.6-2.3,7.6-7.5C85.2,16.2,83,13.8,77.6,13.8z"/>
			<path class="st1" d="M150.4,65.1l-2.6-11.9h-15.2l-2.6,11.9h-17.7L129,0h24l16.4,65.1H150.4z M140.3,15.5l-4.8,24.7h9.6
				L140.3,15.5z"/>
			<path class="st1" d="M228.7,65.1l0.1-43.6l-8.4,43.6h-15.5l-8.4-43.6l0.2,43.6h-16.1L182.1,0h24.2l6.9,41.6L220.3,0h23.5
				l1.6,65.1H228.7z"/>
		</g>
	</g>
</g>
</svg>
