<svg xmlns="http://www.w3.org/2000/svg" width="66.28" height="66.28" viewBox="0 0 66.28 66.28"><defs><style>.cls-1{fill:#019695;}.cls-2{fill:#fff;}</style></defs><g id="Layer_2" data-name="Layer 2"><g id="Layer_1-2" data-name="Layer 1"><rect class="cls-1" width="66.28" height="66.28" rx="9.58"/><path class="cls-2" d="M16.11,49V17.25h4.5a21.32,21.32,0,0,1,5.73.56,7.66,7.66,0,0,1,4.1,2.81A7.93,7.93,0,0,1,32,25.46a7.74,7.74,0,0,1-.69,3.3A8.15,8.15,0,0,1,29,31.53a9.23,9.23,0,0,1,3.82,3.41A9.32,9.32,0,0,1,34,39.76a9.67,9.67,0,0,1-1.25,4.89,8.41,8.41,0,0,1-3.21,3.29A11.31,11.31,0,0,1,24.14,49Zm5.45-26v6.7h1.19a4.12,4.12,0,0,0,3-.93,3.32,3.32,0,0,0,1-2.53,3.11,3.11,0,0,0-.92-2.36A3.88,3.88,0,0,0,23,23Zm0,12.1v8.14h1.37c2.26,0,3.79-.32,4.57-.95a3.32,3.32,0,0,0,1.19-2.76A4.06,4.06,0,0,0,27.3,36.3c-.92-.78-2.46-1.18-4.61-1.18Z"/><path class="cls-2" d="M42,17.25h8.17V49H44.76V22.94h-5.9Z"/></g></g></svg>