<svg xmlns="http://www.w3.org/2000/svg" width="66.28" height="66.28" viewBox="0 0 66.28 66.28"><defs><style>.cls-1{fill:#325c9b;}.cls-2{fill:#fff;}</style></defs><g id="Layer_2" data-name="Layer 2"><g id="Layer_1-2" data-name="Layer 1"><rect class="cls-1" width="66.28" height="66.28" rx="9.58"/><path class="cls-2" d="M10.6,16h5.31l6.64,22.17L29.25,16h5.31l4.8,31.78H34.09L31,27.7,24.93,47.76h-4.8l-6-20.06L11,47.76H5.64Z"/><path class="cls-2" d="M46.87,26.22H41.55a12.34,12.34,0,0,1,2.91-8.08,9,9,0,0,1,6.93-3A8.57,8.57,0,0,1,56,16.41a8.7,8.7,0,0,1,3.2,3.52,10.1,10.1,0,0,1,1.19,4.68,15.05,15.05,0,0,1-1.45,6.09,33.45,33.45,0,0,1-5.31,7.71l-3.21,3.76H60.62v5.59H40.77V44.87l8.86-10a28.15,28.15,0,0,0,4.28-5.79,9.26,9.26,0,0,0,1.06-4,4.35,4.35,0,0,0-1.1-3A3.69,3.69,0,0,0,51,20.85a3.63,3.63,0,0,0-2.93,1.44A6.48,6.48,0,0,0,46.87,26.22Z"/></g></g></svg>