<svg xmlns="http://www.w3.org/2000/svg" width="66.28" height="66.28" viewBox="0 0 66.28 66.28"><defs><style>.cls-1{fill:#c89e67;}.cls-2{fill:#fff;}</style></defs><g id="Layer_2" data-name="Layer 2"><g id="Layer_1-2" data-name="Layer 1"><rect class="cls-1" width="66.28" height="66.28" rx="9.58"/><path class="cls-2" d="M10.48,17.25H15.8l6.64,22.16,6.7-22.16h5.31L39.25,49H34L30.91,29,24.82,49H20L14,29,10.84,49H5.52Z"/><path class="cls-2" d="M47.38,25.09H42.14a10.11,10.11,0,0,1,2.28-5.66,8.35,8.35,0,0,1,6.56-3,7.85,7.85,0,0,1,5.91,2.49,8.21,8.21,0,0,1,2.39,5.89,7.46,7.46,0,0,1-1,3.87,7.75,7.75,0,0,1-3,2.83,7.76,7.76,0,0,1,4.08,3,8.77,8.77,0,0,1,1.47,5.07,10.12,10.12,0,0,1-2.84,7.25,9.6,9.6,0,0,1-7.25,3,8.94,8.94,0,0,1-6.8-2.8A11.64,11.64,0,0,1,41,39.41h5.4a6.28,6.28,0,0,0,1.55,3.67,4.07,4.07,0,0,0,3,1.2,4.13,4.13,0,0,0,3.17-1.37,4.9,4.9,0,0,0-.44-7A7.37,7.37,0,0,0,48.8,34.4V29.22a8.13,8.13,0,0,0,2.93-.68,3.87,3.87,0,0,0,1.5-1.39,3.58,3.58,0,0,0,.54-1.88A2.94,2.94,0,0,0,53,23.12a2.84,2.84,0,0,0-2.14-.86,3.25,3.25,0,0,0-2.13.79A4,4,0,0,0,47.38,25.09Z"/></g></g></svg>