<?xml version="1.0" encoding="utf-8"?>
<!-- Generator: Adobe Illustrator 26.0.1, SVG Export Plug-In . SVG Version: 6.00 Build 0)  -->
<svg version="1.1" id="Layer_1" xmlns="http://www.w3.org/2000/svg" xmlns:xlink="http://www.w3.org/1999/xlink" x="0px" y="0px"
	 viewBox="0 0 17.8 17.8" style="enable-background:new 0 0 17.8 17.8;" xml:space="preserve">
<style type="text/css">
	.st0{fill:#7A7157;}
	.st1{fill:#FFFFFF;}
</style>
<g>
	<g id="Layer_2_00000001631179149801081840000013719237041839470987_">
		<g id="Layer_1-2">
			<path class="st0" d="M0,8.9C0,3.98,3.98,0,8.9,0s8.9,3.98,8.9,8.9s-3.98,8.9-8.9,8.9C3.99,17.79,0.01,13.81,0,8.9"/>
		</g>
	</g>
	<g>
		<path class="st1" d="M4.53,12.14V5.55h3.66v1.04H5.85v1.62h2.23v1.04H5.85v2.89H4.53z"/>
		<path class="st1" d="M9.19,10.88c0.55,0.24,0.95,0.33,1.33,0.33c0.84,0,1.43-0.42,1.43-1.16c0-0.73-0.58-1.14-1.51-1.14
			c-0.41,0-0.79,0.06-1.18,0.18l0.07-3.54h3.79v0.98h-2.54l-0.03,1.41c0.23-0.04,0.37-0.07,0.6-0.07c1.18,0,2.12,0.65,2.12,2.13
			c0,1.35-0.98,2.25-2.57,2.25c-0.42,0-1.04-0.07-1.54-0.19L9.19,10.88z"/>
	</g>
</g>
</svg>
